<svg width="126" height="50" viewBox="0 0 126 50" fill="none" xmlns="http://www.w3.org/2000/svg">
<path d="M13.8426 2.63009V17H12.8435L5.11646 5.59548L3.78788 3.20403H3.66034L3.72411 5.82931V15.6927L5.4672 16.5642V17H0.461117V16.5642L2.3105 15.6927V2.5238L0.354831 1.75854V1.32276H5.03143L5.244 2.375L10.7177 10.3571L12.4077 13.1524H12.5459L12.429 10.6016V2.63009L10.6859 1.75854V1.32276H15.7026V1.75854L13.8426 2.63009ZM24.8963 17.4358C23.5288 17.4358 22.3065 17.1063 21.2295 16.4473C20.1595 15.7812 19.3163 14.8211 18.6999 13.567C18.0834 12.3128 17.7752 10.8602 17.7752 9.20921C17.7752 7.97629 17.9665 6.83548 18.3491 5.78679C18.7388 4.73101 19.2667 3.84529 19.9328 3.12963C20.6059 2.41397 21.3924 1.8542 22.2923 1.45031C23.1922 1.04642 24.1523 0.844476 25.1727 0.844476C26.186 0.844476 27.1248 1.04642 27.9893 1.45031C28.8608 1.84711 29.6084 2.40334 30.2319 3.119C30.8555 3.83467 31.3444 4.71684 31.6987 5.76553C32.053 6.80714 32.2301 7.94795 32.2301 9.18795C32.2301 10.4209 32.0352 11.5581 31.6455 12.5997C31.2629 13.6414 30.7421 14.5129 30.0831 15.2144C29.4241 15.9159 28.6447 16.4615 27.7448 16.8512C26.852 17.2409 25.9025 17.4358 24.8963 17.4358ZM25.0239 2.04551C24.0319 2.04551 23.1568 2.35374 22.3986 2.9702C21.6475 3.57958 21.07 4.42633 20.6662 5.51045C20.2623 6.58748 20.0603 7.8204 20.0603 9.20921C20.0603 11.3208 20.5138 13.0284 21.4208 14.3322C22.3278 15.6289 23.5288 16.2773 25.0239 16.2773C26.4977 16.2773 27.6846 15.6218 28.5845 14.311C29.4915 13.0001 29.9449 11.2924 29.9449 9.18795C29.9449 7.0764 29.4915 5.3581 28.5845 4.03307C27.6775 2.70803 26.4906 2.04551 25.0239 2.04551ZM44.942 17L41.5939 10.4315C41.3884 10.4598 41.1759 10.4811 40.9562 10.4953C40.7436 10.5094 40.524 10.5165 40.2972 10.5165C40.0351 10.5165 39.7658 10.5059 39.4895 10.4846C39.2202 10.4634 38.9403 10.435 38.6498 10.3996V15.799L41.0519 16.5642V17H34.7385V16.5642L36.6941 15.799V2.5238L34.7385 1.75854V1.32276H40.7224C41.6435 1.32276 42.4619 1.42905 43.1776 1.64162C43.8933 1.84711 44.4955 2.14117 44.9845 2.5238C45.4805 2.90643 45.856 3.36701 46.1111 3.90552C46.3662 4.43695 46.4937 5.02862 46.4937 5.6805C46.4937 6.63708 46.2457 7.48737 45.7497 8.23138C45.2608 8.9683 44.5345 9.53161 43.5709 9.92133L46.6638 15.9584L48.2262 16.5642V17H44.942ZM41.0306 2.43877H38.6498V9.27298C38.9403 9.30841 39.2131 9.33675 39.4682 9.35801C39.7304 9.37218 39.9855 9.37927 40.2335 9.37927C42.9686 9.37927 44.3361 8.20303 44.3361 5.85056C44.3361 4.70976 44.0527 3.85592 43.4858 3.28906C42.919 2.7222 42.1006 2.43877 41.0306 2.43877ZM48.9915 1.32276L49.3209 1.04642L51.3404 1.32276H59.7264L61.7458 1.04642L62.0753 1.32276V5.72302H61.6395L60.311 2.48129L56.6122 2.33248V15.799L58.5679 16.5642V17H52.8071V16.5642L54.6565 15.799V2.33248L50.8196 2.50254L49.4272 5.72302H48.9915V1.32276ZM75.3398 15.799V9.60247H67.4215V15.799L69.3772 16.5642V17H63.4995V16.5642L65.3489 15.799V2.5238L63.3933 1.75854V1.32276H69.2709V1.75854L67.4215 2.5238V8.46521H75.3398V2.5238L73.3842 1.75854V1.32276H79.0386V1.71602L77.4124 2.5238V15.799L79.3681 16.5642V17H73.4905V16.5642L75.3398 15.799ZM81.7808 17V16.5642L83.7365 15.799V2.5238L81.7808 1.75854V1.32276H90.4219L92.4413 1.04642L92.7708 1.32276V5.59548H92.335L90.9852 2.46003H85.809V8.44395L90.2199 8.23138L90.6344 8.38018L90.4219 9.79379L85.809 9.62373V15.8734H91.1978L92.5476 12.7379H92.9834V17H81.7808ZM105.589 17L102.241 10.4315C102.035 10.4598 101.823 10.4811 101.603 10.4953C101.391 10.5094 101.171 10.5165 100.944 10.5165C100.682 10.5165 100.413 10.5059 100.136 10.4846C99.8672 10.4634 99.5873 10.435 99.2968 10.3996V15.799L101.699 16.5642V17H95.3854V16.5642L97.3411 15.799V2.5238L95.3854 1.75854V1.32276H101.369C102.291 1.32276 103.109 1.42905 103.825 1.64162C104.54 1.84711 105.143 2.14117 105.631 2.5238C106.127 2.90643 106.503 3.36701 106.758 3.90552C107.013 4.43695 107.141 5.02862 107.141 5.6805C107.141 6.63708 106.893 7.48737 106.397 8.23138C105.908 8.9683 105.182 9.53161 104.218 9.92133L107.311 15.9584L108.873 16.5642V17H105.589ZM101.678 2.43877H99.2968V9.27298C99.5873 9.30841 99.8601 9.33675 100.115 9.35801C100.377 9.37218 100.632 9.37927 100.88 9.37927C103.616 9.37927 104.983 8.20303 104.983 5.85056C104.983 4.70976 104.7 3.85592 104.133 3.28906C103.566 2.7222 102.748 2.43877 101.678 2.43877ZM123.785 2.63009V17H122.786L115.059 5.59548L113.73 3.20403H113.603L113.667 5.82931V15.6927L115.41 16.5642V17H110.404V16.5642L112.253 15.6927V2.5238L110.297 1.75854V1.32276H114.974L115.187 2.375L120.66 10.3571L122.35 13.1524H122.488L122.372 10.6016V2.63009L120.628 1.75854V1.32276H125.645V1.75854L123.785 2.63009ZM44.3786 44.4145C43.6842 44.8397 43.337 45.5128 43.337 46.434C43.337 46.852 43.4398 47.1992 43.6453 47.4756C43.8507 47.759 44.1129 47.9822 44.4318 48.1452C44.7506 48.3152 45.1049 48.4357 45.4946 48.5065C45.8844 48.5774 46.2599 48.6128 46.6213 48.6128C46.9968 48.6128 47.3724 48.5739 47.7479 48.4959C48.1305 48.4251 48.4707 48.3152 48.7683 48.1664C49.0729 48.0247 49.321 47.844 49.5123 47.6244C49.7036 47.4118 49.7992 47.1602 49.7992 46.8697C49.7992 46.4233 49.6859 46.0655 49.4591 45.7962C49.2395 45.527 48.9383 45.3109 48.5557 45.1479C48.1731 44.992 47.7231 44.8751 47.2059 44.7971C46.6886 44.7192 46.1359 44.6483 45.5478 44.5846C45.2998 44.5562 45.0766 44.5279 44.8782 44.4995C44.6869 44.4712 44.5204 44.4429 44.3786 44.4145ZM46.515 41.0346C45.7852 41.0346 45.1156 40.9212 44.5062 40.6945C44.0598 40.9921 43.8366 41.3676 43.8366 41.8211C43.8366 42.0833 43.9854 42.2923 44.283 42.4482C44.5877 42.6041 44.9809 42.7175 45.4628 42.7883C45.9446 42.8521 46.476 42.9123 47.0571 42.969C47.6381 43.0257 48.2191 43.1143 48.8001 43.2347C49.3812 43.3552 49.9126 43.5217 50.3944 43.7343C50.8763 43.9398 51.266 44.2515 51.5636 44.6696C51.8683 45.0947 52.0206 45.612 52.0206 46.2214C52.0206 46.7103 51.9037 47.1567 51.6699 47.5606C51.436 47.9645 51.1278 48.294 50.7452 48.5491C50.3696 48.8112 49.9268 49.0309 49.4166 49.208C48.9064 49.3852 48.3856 49.5127 47.8542 49.5907C47.3299 49.6686 46.7949 49.7076 46.2493 49.7076C44.7258 49.7076 43.5354 49.4419 42.6781 48.9104C41.8207 48.3861 41.392 47.6988 41.392 46.8485C41.392 45.6226 42.0687 44.7298 43.4221 44.1701C42.5789 43.8866 42.1573 43.3587 42.1573 42.5864C42.1573 41.6794 42.7099 40.9248 43.8153 40.3225C43.1989 39.9469 42.7241 39.458 42.3911 38.8557C42.0651 38.2535 41.9022 37.6157 41.9022 36.9426C41.9022 36.4253 42.0049 35.9258 42.2104 35.4439C42.4159 34.955 42.7064 34.5193 43.0819 34.1366C43.4646 33.7469 43.9535 33.4351 44.5487 33.2013C45.1439 32.9675 45.7993 32.8506 46.515 32.8506C47.1385 32.8506 47.7089 32.9391 48.2262 33.1163H52.4989V33.5521L50.1712 34.3811C50.809 35.1251 51.1278 35.9789 51.1278 36.9426C51.1278 37.4598 51.0215 37.9629 50.809 38.4519C50.6035 38.9337 50.3094 39.3695 49.9268 39.7592C49.5512 40.1418 49.0659 40.45 48.4707 40.6839C47.8825 40.9177 47.2307 41.0346 46.515 41.0346ZM44.1129 36.9426C44.1129 37.9133 44.3255 38.6573 44.7506 39.1746C45.1758 39.6919 45.7639 39.9505 46.515 39.9505C47.259 39.9505 47.8436 39.6919 48.2687 39.1746C48.6939 38.6503 48.9064 37.9062 48.9064 36.9426C48.9064 35.9789 48.6939 35.2385 48.2687 34.7212C47.8436 34.2039 47.259 33.9453 46.515 33.9453C45.7639 33.9453 45.1758 34.2039 44.7506 34.7212C44.3255 35.2385 44.1129 35.9789 44.1129 36.9426ZM59.0143 32.8506C59.822 32.8506 60.5483 32.9887 61.1931 33.2651C61.8379 33.5414 62.3835 33.9311 62.8299 34.4342C63.2763 34.9302 63.6165 35.529 63.8503 36.2305C64.0912 36.932 64.2117 37.7078 64.2117 38.5581C64.2117 39.4013 64.0948 40.1737 63.8609 40.8752C63.6271 41.5767 63.287 42.179 62.8406 42.682C62.3942 43.1851 61.8486 43.5749 61.2038 43.8512C60.559 44.1275 59.8291 44.2657 59.0143 44.2657C58.1923 44.2657 57.4589 44.1275 56.8141 43.8512C56.1693 43.5749 55.6237 43.1851 55.1773 42.682C54.7309 42.179 54.3908 41.5802 54.157 40.8858C53.9231 40.1843 53.8062 39.4084 53.8062 38.5581C53.8062 37.7078 53.9231 36.932 54.157 36.2305C54.3979 35.529 54.7416 34.9302 55.188 34.4342C55.6344 33.9311 56.18 33.5414 56.8248 33.2651C57.4696 32.9887 58.1994 32.8506 59.0143 32.8506ZM56.6972 35.1038C56.1516 35.9896 55.8788 37.141 55.8788 38.5581C55.8788 39.2596 55.9461 39.9044 56.0808 40.4926C56.2225 41.0736 56.4244 41.5767 56.6866 42.0018C56.9559 42.4199 57.2853 42.7458 57.6751 42.9797C58.0648 43.2135 58.5112 43.3304 59.0143 43.3304C59.5174 43.3304 59.9673 43.2135 60.3641 42.9797C60.7609 42.7458 61.0939 42.4199 61.3632 42.0018C61.6395 41.5767 61.8486 41.0736 61.9903 40.4926C62.1391 39.9044 62.2135 39.2596 62.2135 38.5581C62.2135 37.8637 62.1391 37.226 61.9903 36.645C61.8486 36.0569 61.6395 35.5538 61.3632 35.1357C61.0939 34.7106 60.7609 34.3811 60.3641 34.1473C59.9673 33.9063 59.5174 33.7859 59.0143 33.7859C58.0081 33.7859 57.2357 34.2252 56.6972 35.1038ZM71.7261 43.5642V44H65.8485V43.5642L67.8148 42.799V29.375L65.8485 28.6097V28.174L69.5579 27.4087L69.7704 27.6319V42.799L71.7261 43.5642ZM85.0225 43.0647V43.4579L81.3238 44.2657L81.1112 44.0425V43.0222C80.2609 43.8512 79.2583 44.2657 78.1033 44.2657C77.5152 44.2657 76.9483 44.1346 76.4027 43.8725C75.8571 43.6032 75.3753 43.2312 74.9572 42.7564C74.5392 42.2746 74.2026 41.6723 73.9475 40.9496C73.6995 40.2197 73.5755 39.4226 73.5755 38.5581C73.5755 37.7149 73.7172 36.9355 74.0006 36.2198C74.2912 35.5042 74.6809 34.9054 75.1698 34.4236C75.6587 33.9347 76.2362 33.5556 76.9023 33.2863C77.5683 33.01 78.2733 32.8718 79.0174 32.8718C79.6905 32.8718 80.3884 32.9887 81.1112 33.2226V29.375L79.1449 28.6097V28.174L82.8543 27.4087L83.0669 27.6319V42.5226L85.0225 43.0647ZM81.1112 41.8636V34.4874C80.4522 34.126 79.8287 33.9453 79.2406 33.9453C78.2415 33.9453 77.416 34.3882 76.7641 35.2739C76.1193 36.1525 75.7969 37.2473 75.7969 38.5581C75.7969 39.9328 76.0626 41.0382 76.594 41.8743C77.1325 42.7104 77.8836 43.1285 78.8473 43.1285C79.733 43.1285 80.4876 42.7068 81.1112 41.8636Z" fill="black"/>
</svg>
